HIERARCHY
ROOT root
{
	OFFSET 0.000000 0.000000 0.000000
	CHANNELS 6 Xposition Yposition Zposition Zrotation Yrotation Xrotation
	JOINT lhip
	{
		OFFSET 0.058581 -0.082280 -0.017664
		CHANNELS 3 Zrotation Yrotation Xrotation
		JOINT lknee
		{
			OFFSET 0.043451 -0.386469 0.008037
			CHANNELS 3 Zrotation Yrotation Xrotation
			JOINT lankle
			{
				OFFSET -0.014790 -0.426874 -0.037428
				CHANNELS 3 Zrotation Yrotation Xrotation
				JOINT ltoe
				{
					OFFSET 0.041054 -0.060286 0.122042
					CHANNELS 3 Zrotation Yrotation Xrotation
					End Site
					{
						OFFSET 0.000000 0.000000 0.000000
					}
				}
			}
		}
	}
	JOINT rhip
	{
		OFFSET -0.060310 -0.090513 -0.013543
		CHANNELS 3 Zrotation Yrotation Xrotation
		JOINT rknee
		{
			OFFSET -0.043257 -0.383688 -0.004843
			CHANNELS 3 Zrotation Yrotation Xrotation
			JOINT rankle
			{
				OFFSET 0.019056 -0.420046 -0.034562
				CHANNELS 3 Zrotation Yrotation Xrotation
				JOINT rtoe
				{
					OFFSET -0.034840 -0.062106 0.130323
					CHANNELS 3 Zrotation Yrotation Xrotation
					End Site
					{
						OFFSET 0.000000 0.000000 0.000000
					}
				}
			}
		}
	}
	JOINT lowerback
	{
		OFFSET 0.004439 0.124404 -0.038385
		CHANNELS 3 Zrotation Yrotation Xrotation
		JOINT upperback
		{
			OFFSET 0.004488 0.137956 0.026820
			CHANNELS 3 Zrotation Yrotation Xrotation
			JOINT chest
			{
				OFFSET -0.002265 0.056032 0.002855
				CHANNELS 3 Zrotation Yrotation Xrotation
				JOINT lowerneck
				{
					OFFSET -0.013390 0.211636 -0.033468
					CHANNELS 3 Zrotation Yrotation Xrotation
					JOINT upperneck
					{
						OFFSET 0.010113 0.088937 0.050410
						CHANNELS 3 Zrotation Yrotation Xrotation
						End Site
						{
							OFFSET 0.000000 0.000000 0.000000
						}
					}
				}
				JOINT lclavicle
				{
					OFFSET 0.071702 0.114000 -0.018898
					CHANNELS 3 Zrotation Yrotation Xrotation
					JOINT lshoulder
					{
						OFFSET 0.122921 0.045205 -0.019046
						CHANNELS 3 Zrotation Yrotation Xrotation
						JOINT lelbow
						{
							OFFSET 0.255332 -0.015649 -0.022946
							CHANNELS 3 Zrotation Yrotation Xrotation
							JOINT lwrist
							{
								OFFSET 0.265709 0.012698 -0.007375
								CHANNELS 3 Zrotation Yrotation Xrotation
								End Site
								{
									OFFSET 0.000000 0.000000 0.000000
								}
							}
						}
					}
				}
				JOINT rclavicle
				{
					OFFSET -0.082954 0.112472 -0.023707
					CHANNELS 3 Zrotation Yrotation Xrotation
					JOINT rshoulder
					{
						OFFSET -0.113228 0.046853 -0.008472
						CHANNELS 3 Zrotation Yrotation Xrotation
						JOINT relbow
						{
							OFFSET -0.260127 -0.014369 -0.031269
							CHANNELS 3 Zrotation Yrotation Xrotation
							JOINT rwrist
							{
								OFFSET -0.269108 0.006794 -0.006027
								CHANNELS 3 Zrotation Yrotation Xrotation
								End Site
								{
									OFFSET 0.000000 0.000000 0.000000
								}
							}
						}
					}
				}
			}
		}
	}
}
MOTION
Frames: 14
Frame Time: 0.033333
-0.071107 -0.028689 0.192456 -178.162520 -4.301624 -12.449541 17.434465 13.041387 -21.551572 -11.719086 2.029788 73.785447 -1.933806 11.366237 -0.112550 0.000000 -0.000000 0.000000 -30.434935 -28.921486 0.431100 3.480447 -19.652057 50.649635 11.377256 -12.734539 5.097818 0.000000 -0.000000 0.000000 1.875987 4.113302 18.558199 2.687932 -1.993100 -2.373732 2.626787 0.020025 2.780696 2.670425 -1.100813 -9.567172 3.065809 0.349891 0.167612 2.397980 9.837815 -5.836829 -24.167743 6.984973 -10.763300 1.648387 -24.138351 36.796050 -22.878128 -4.056919 22.634959 0.981036 -2.382736 -12.220757 25.828112 -1.642213 -5.154412 -1.805553 12.588255 25.423363 39.039305 -13.224650 42.556389 
-0.071369 -0.028590 0.192383 -178.187514 -4.241519 -12.358106 17.456872 12.856275 -21.675642 -11.498928 2.235033 73.787547 -1.712451 11.067618 -0.090321 0.000000 -0.000000 0.000000 -30.382445 -28.884998 0.328351 3.357524 -19.847428 50.765530 11.260574 -12.571421 5.110931 0.000000 -0.000000 0.000000 1.942073 4.092487 18.480135 2.668930 -2.105949 -2.376115 2.550166 -0.034195 2.719920 2.695930 -0.803654 -9.370826 3.205584 0.014351 -0.193239 2.530229 10.014665 -6.074905 -24.268441 7.049433 -10.664099 1.720997 -24.169058 36.620013 -22.928033 -4.093090 23.078255 1.160600 -2.167271 -12.355811 25.643311 -1.728310 -5.162130 -1.673576 12.306335 25.531345 39.228339 -12.855815 42.501714 
-0.071456 -0.028558 0.192660 -178.180729 -4.239379 -12.437185 17.549507 12.973349 -21.574383 -11.556663 2.271688 73.791216 -1.674900 11.021194 -0.166982 0.000000 -0.000000 0.000000 -30.440289 -28.982273 0.400360 3.306700 -19.724280 50.828352 11.297860 -12.506533 5.101367 0.000000 -0.000000 0.000000 2.111871 4.136087 18.421807 2.570674 -2.075047 -2.154634 2.463028 0.052524 2.660327 2.493649 -1.040607 -9.269238 3.484761 -0.011046 -0.543906 2.447496 9.731906 -6.029469 -24.101189 7.040042 -10.696021 1.576846 -24.098144 36.626910 -22.387554 -4.134103 23.060886 1.155269 -2.085022 -12.119827 25.765777 -2.250718 -5.356074 -1.807516 12.775341 25.607587 39.145168 -12.694128 42.272056 
-0.071568 -0.028645 0.192780 -178.253196 -4.238620 -12.460641 17.584772 12.947827 -21.551087 -11.500343 2.220513 73.833489 -1.814178 10.992870 -0.190221 0.000000 -0.000000 0.000000 -30.356141 -28.945074 0.381511 3.204446 -19.735205 50.933058 11.335878 -12.447242 5.208519 0.000000 -0.000000 0.000000 2.021223 4.046995 18.486218 2.691698 -2.107378 -2.307535 2.511015 0.061089 2.715294 2.564036 -0.948653 -9.426704 3.482709 -0.256198 -0.090389 2.608539 9.930473 -6.073325 -24.382541 7.067150 -10.613023 1.722539 -24.125489 36.687659 -22.528927 -4.236108 23.011071 1.103012 -2.058697 -12.264498 25.718352 -2.055463 -5.171811 -1.816382 12.645990 25.742312 39.217231 -12.836337 42.255875 
-0.071645 -0.028795 0.192729 -178.265502 -4.215749 -12.433806 17.609916 12.957004 -21.583705 -11.526222 2.229602 73.835113 -1.860766 10.913009 -0.322113 0.000000 -0.000000 0.000000 -30.285654 -28.922511 0.305734 3.090434 -19.765226 50.976292 11.396352 -12.455648 5.267756 0.000000 -0.000000 0.000000 2.009420 3.982801 18.399311 2.725472 -2.096311 -2.241015 2.498163 0.116847 2.698829 2.512720 -0.996770 -9.428361 3.483630 -0.276762 -0.009658 2.496735 9.951440 -6.095099 -24.278599 7.013751 -10.565098 1.737326 -24.194189 36.738625 -22.621810 -4.218234 23.024769 1.199469 -2.004556 -12.148113 25.547955 -2.061617 -5.186624 -1.696885 12.557191 25.878588 39.534045 -12.630336 41.837385 
-0.071589 -0.029161 0.193047 -178.352318 -4.082437 -12.562287 17.692839 12.965390 -21.501039 -11.564255 2.085768 73.848810 -1.963659 10.935496 -0.522304 0.000000 -0.000000 0.000000 -30.201801 -28.928943 0.545816 2.996989 -19.680334 50.881093 11.380126 -12.398081 5.179037 0.000000 -0.000000 0.000000 1.950694 3.852342 18.493496 2.806512 -2.201542 -2.312283 2.533842 0.207398 2.687125 2.362566 -1.173470 -9.335874 3.903007 -0.632445 0.051850 2.496964 9.921320 -6.126404 -24.187765 7.102095 -10.473235 1.652112 -24.247965 36.568518 -22.643260 -4.090389 23.018379 1.386381 -1.854295 -12.032998 25.144166 -2.071675 -5.389555 -1.283844 12.545135 26.033124 39.336624 -12.751009 41.683306 
-0.071855 -0.029484 0.193150 -178.386671 -4.040128 -12.543285 17.701855 12.883239 -21.515345 -11.539964 2.091053 73.797510 -2.187395 11.048338 -1.009920 0.000000 -0.000000 0.000000 -30.102729 -28.794320 0.469345 3.113934 -19.588294 50.813083 11.504241 -12.599831 5.183954 0.000000 -0.000000 0.000000 1.989661 3.820176 18.286230 2.807858 -2.182004 -2.054069 2.481849 0.238417 2.782063 2.330827 -0.988269 -9.542995 3.932410 -0.666240 0.090501 2.324314 9.923336 -6.341201 -23.969736 6.976928 -10.518300 1.684697 -24.364220 35.935976 -23.594036 -3.549218 22.492742 1.706489 -1.986799 -12.080628 24.888064 -2.021639 -5.572522 -1.409331 13.130560 25.322340 40.168418 -13.605066 41.258295 
-0.072203 -0.029800 0.193525 -178.488746 -3.897734 -12.643206 17.751832 12.765790 -21.416988 -11.500388 2.014644 73.737622 -2.144895 11.112583 -1.144559 0.000000 -0.000000 0.000000 -30.049127 -28.562871 0.700936 3.185215 -19.630190 50.634063 11.591048 -12.677819 5.253528 0.000000 -0.000000 0.000000 1.839033 3.620232 18.348936 2.934539 -2.295345 -2.096693 2.641462 0.222941 2.833458 2.356888 -1.012361 -9.560837 3.905208 -0.469653 0.347999 2.218208 10.203177 -6.722097 -24.052323 7.074000 -10.473092 1.883714 -24.611997 34.965022 -23.907009 -3.098859 22.733055 1.808267 -1.855660 -12.553430 24.290211 -1.658420 -5.383017 -0.959289 12.998916 24.557713 40.924014 -14.845954 40.783908 
-0.072319 -0.030385 0.193771 -178.573703 -3.793370 -12.658088 17.778310 12.758450 -21.417068 -11.416542 1.916894 73.703484 -2.068283 11.038036 -1.323781 0.000000 -0.000000 0.000000 -29.883341 -28.528565 0.789570 2.957670 -19.635713 50.594888 11.680802 -12.464366 5.308769 0.000000 -0.000000 0.000000 1.898384 3.540057 18.294790 2.933533 -2.276158 -2.068378 2.683781 0.244350 2.818615 2.126464 -1.203328 -9.313706 4.065737 -0.277949 0.137711 2.019325 10.138509 -6.839636 -24.029707 6.947596 -10.800123 2.158508 -24.820711 33.726894 -23.692737 -2.758235 22.659731 1.849614 -1.845842 -12.641048 24.076182 -1.699515 -5.700517 -0.842907 13.404254 23.770341 41.364822 -15.183176 39.855077 
-0.072714 -0.030532 0.194123 -178.533076 -3.771556 -12.735944 17.644996 12.843026 -21.376567 -11.471917 1.763384 73.838663 -2.135322 11.195210 -1.973028 0.000000 -0.000000 0.000000 -29.667911 -28.665474 0.648414 3.000640 -18.854427 50.540098 11.777982 -12.889473 5.384277 0.000000 -0.000000 0.000000 1.888164 3.632609 18.480147 2.884386 -2.122873 -2.584754 2.756450 0.305660 3.181685 1.917342 -1.567662 -9.666935 4.228941 -0.351672 0.875855 2.363613 10.148418 -7.340890 -24.443457 6.398169 -10.543645 2.522014 -24.465856 32.994780 -21.223860 -3.106373 22.180809 1.603544 -2.048100 -13.482465 23.817723 -1.946829 -5.570099 -0.276659 13.842178 23.063889 42.599653 -15.623774 37.900963 
-0.073129 -0.031072 0.194346 -178.559526 -3.649773 -12.662699 17.421748 12.742781 -21.556936 -11.410604 1.563558 73.906727 -2.238252 11.232974 -2.240562 0.000000 -0.000000 0.000000 -29.467850 -28.643478 0.588696 2.832673 -18.703966 50.461132 12.253484 -12.693666 5.473515 0.000000 -0.000000 0.000000 1.915659 3.602636 18.455709 2.883988 -2.159015 -2.790701 2.732517 0.411685 3.309656 1.599131 -1.890452 -9.559949 4.653358 -0.504049 0.920482 2.475958 10.185015 -7.648134 -24.551069 6.092678 -10.457120 2.717229 -24.356729 32.030999 -19.864787 -3.187436 21.885500 1.506025 -2.206534 -13.681417 23.521501 -1.937871 -5.849726 0.376505 14.313330 22.533015 43.517345 -15.623785 36.361282 
-0.073541 -0.031730 0.194643 -178.549671 -3.510783 -12.742522 17.283073 12.618680 -21.590601 -11.419359 1.467938 73.932549 -2.170718 11.289346 -2.170745 0.000000 -0.000000 0.000000 -29.386491 -28.360167 0.615962 2.862343 -18.627521 50.390845 12.209787 -12.805264 5.558831 0.000000 -0.000000 0.000000 2.085218 3.518586 18.531002 2.687193 -2.068561 -2.759649 2.618673 0.470109 3.309572 1.379349 -2.306898 -9.430387 5.120758 -0.401867 0.657052 2.287520 10.027736 -7.989567 -24.269974 5.745741 -10.624635 3.031665 -24.454888 31.072624 -19.918120 -2.973620 21.406101 1.378738 -2.412857 -13.847498 23.572874 -2.174516 -6.117093 0.753785 15.307689 21.842881 45.024389 -15.342759 34.361859 
-0.073941 -0.032220 0.194678 -178.549343 -3.508310 -12.806019 17.215948 12.574874 -21.490907 -11.390213 1.429442 73.884467 -2.274863 11.267298 -2.533143 0.000000 -0.000000 0.000000 -29.248237 -28.148333 0.592134 2.687451 -18.527479 50.392619 12.404109 -12.685321 5.440008 0.000000 -0.000000 0.000000 2.179293 3.505845 18.637578 2.578160 -2.009950 -2.732341 2.585130 0.495921 3.393165 1.460413 -2.284874 -9.312180 5.240600 -0.072334 0.514682 2.152358 9.953641 -8.314138 -24.120033 5.318279 -10.852167 3.356183 -24.279323 29.725622 -20.539999 -3.130609 20.487631 1.432553 -2.628408 -14.184418 23.299626 -2.128970 -5.956316 1.314679 16.482515 21.804901 46.156602 -15.217639 32.929142 
-0.074273 -0.032742 0.194762 -178.588847 -3.422955 -12.920997 17.275067 12.509535 -21.473906 -11.193183 1.553420 73.970276 -2.563546 11.243636 -2.946706 0.000000 -0.000000 0.000000 -29.203817 -28.080631 0.647038 2.467668 -18.503750 50.520924 12.675283 -12.597474 5.404476 0.000000 -0.000000 0.000000 2.205979 3.401119 18.810683 2.608408 -2.005255 -2.789254 2.565499 0.602757 3.367794 1.116513 -2.760865 -9.065833 5.511597 -0.644296 0.402242 2.204329 9.944049 -8.246823 -24.258578 4.728786 -11.021208 3.578885 -24.021054 27.873811 -21.064153 -5.307824 17.521481 1.516160 -2.856730 -14.283604 23.010128 -2.097132 -5.816720 1.696131 17.952397 22.246332 46.773241 -14.607530 32.009118 
